<svg width="73" height="73" viewBox="0 0 73 73" fill="none" xmlns="http://www.w3.org/2000/svg">
<path d="M18.11 35.7C12.09 35.7 7.56333 34.16 4.53 31.08C1.54333 27.9533 0.05 23.6367 0.05 18.13C0.05 12.5767 1.73 8.33 5.09 5.39C8.49667 2.45 12.8133 0.979998 18.04 0.979998C28.6333 0.979998 33.72 6.3 33.3 16.94H13.56V19.67C13.56 24.2433 14.1433 27.6967 15.31 30.03C16.4767 32.3633 18.5067 33.53 21.4 33.53C26.8133 33.53 30.36 30.6367 32.04 24.85L33.3 25.06C32.4133 28.42 30.8033 31.0333 28.47 32.9C26.1833 34.7667 22.73 35.7 18.11 35.7ZM13.63 15.54H20.84V12.11C20.84 8.33 20.6067 5.76333 20.14 4.41C19.72 3.01 18.8333 2.31 17.48 2.31C16.1733 2.31 15.1933 3.05667 14.54 4.55C13.9333 5.99667 13.63 8.51667 13.63 12.11V15.54ZM67.6602 1.68V2.94L51.0702 33.74H51.9802C55.9002 33.74 58.9802 32.7133 61.2202 30.66C63.4602 28.6067 65.2102 25.27 66.4702 20.65H67.4502L66.3302 35H36.9302V33.95L53.8002 2.94H53.0302C48.3168 2.94 45.0268 3.71 43.1602 5.25C41.3402 6.79 39.7068 10.08 38.2602 15.12H37.3502L38.2602 1.68H67.6602ZM32.25 38.68V39.94L15.66 70.74H16.57C20.49 70.74 23.57 69.7133 25.81 67.66C28.05 65.6067 29.8 62.27 31.06 57.65H32.04L30.92 72H1.52V70.95L18.39 39.94H17.62C12.9067 39.94 9.61667 40.71 7.75 42.25C5.93 43.79 4.29667 47.08 2.85 52.12H1.94L2.85 38.68H32.25ZM51.5 55.55H53.53V50.16C53.53 45.7267 53.2733 42.7633 52.76 41.27C52.2933 39.73 51.36 38.96 49.96 38.96C49.12 38.96 48.35 39.1933 47.65 39.66C46.9967 40.08 46.67 40.6867 46.67 41.48C46.67 42.2267 46.81 42.9967 47.09 43.79H48.84C49.2133 44.77 49.4 45.96 49.4 47.36C49.4 48.7133 48.8167 49.9033 47.65 50.93C46.4833 51.91 45.0133 52.4 43.24 52.4C39.2267 52.4 37.22 50.4633 37.22 46.59C37.22 40.85 42.0967 37.98 51.85 37.98C57.4033 37.98 61.23 38.9367 63.33 40.85C65.4767 42.7167 66.55 46.17 66.55 51.21V65.42C66.55 67.8467 67.2267 69.06 68.58 69.06C70.1667 69.06 71.1 66.6567 71.38 61.85L72.43 61.92C72.2433 66.0267 71.4733 68.85 70.12 70.39C68.7667 71.93 66.55 72.7 63.47 72.7C57.87 72.7 54.65 70.9733 53.81 67.52C53.2033 69.2933 52.2933 70.6 51.08 71.44C49.8667 72.28 48.0933 72.7 45.76 72.7C38.8533 72.7 35.4 69.8767 35.4 64.23C35.4 60.9167 36.7067 58.6533 39.32 57.44C41.98 56.18 46.04 55.55 51.5 55.55ZM48.7 64.16C48.7 66.5867 48.8167 68.15 49.05 68.85C49.33 69.55 49.82 69.9 50.52 69.9C51.2667 69.9 51.9433 69.3167 52.55 68.15C53.2033 66.9367 53.53 65.28 53.53 63.18V56.67H53.04C50.1467 56.67 48.7 58.7933 48.7 63.04V64.16Z" fill="#232829"/>
</svg>
