<svg width="22" height="21" viewBox="0 0 22 21" fill="none" xmlns="http://www.w3.org/2000/svg">
<path d="M21.2326 19.1528H20.2093V7.6207C20.2093 6.98628 19.9228 6.39279 19.4214 6.00395L18.1628 5.02163L18.1423 2.51465C18.1423 1.95186 17.6819 1.50163 17.1191 1.50163H13.6298L12.2586 0.437442C11.5219 -0.145814 10.4781 -0.145814 9.7414 0.437442L2.5786 6.00395C2.07721 6.39279 1.7907 6.98628 1.7907 7.61047L1.73953 19.1528H0.767442C0.347907 19.1528 0 19.5007 0 19.9202C0 20.3398 0.347907 20.6877 0.767442 20.6877H21.2326C21.6521 20.6877 22 20.3398 22 19.9202C22 19.5007 21.6521 19.1528 21.2326 19.1528ZM5.37209 10.4551V8.92023C5.37209 8.35744 5.83256 7.89698 6.39535 7.89698H8.44186C9.00465 7.89698 9.46512 8.35744 9.46512 8.92023V10.4551C9.46512 11.0179 9.00465 11.4784 8.44186 11.4784H6.39535C5.83256 11.4784 5.37209 11.0179 5.37209 10.4551ZM13.5581 19.1528H8.44186V16.3388C8.44186 15.4895 9.12744 14.804 9.97674 14.804H12.0233C12.8726 14.804 13.5581 15.4895 13.5581 16.3388V19.1528ZM16.6279 10.4551C16.6279 11.0179 16.1674 11.4784 15.6047 11.4784H13.5581C12.9953 11.4784 12.5349 11.0179 12.5349 10.4551V8.92023C12.5349 8.35744 12.9953 7.89698 13.5581 7.89698H15.6047C16.1674 7.89698 16.6279 8.35744 16.6279 8.92023V10.4551Z" fill="#BD9566"/>
</svg>
