<svg width="143" height="36" viewBox="0 0 143 36" fill="none" xmlns="http://www.w3.org/2000/svg">
<path d="M18.11 35.7C12.09 35.7 7.56333 34.16 4.53 31.08C1.54333 27.9533 0.05 23.6367 0.05 18.13C0.05 12.5767 1.73 8.33 5.09 5.39C8.49667 2.45 12.8133 0.979998 18.04 0.979998C28.6333 0.979998 33.72 6.3 33.3 16.94H13.56V19.67C13.56 24.2433 14.1433 27.6967 15.31 30.03C16.4767 32.3633 18.5067 33.53 21.4 33.53C26.8133 33.53 30.36 30.6367 32.04 24.85L33.3 25.06C32.4133 28.42 30.8033 31.0333 28.47 32.9C26.1833 34.7667 22.73 35.7 18.11 35.7ZM13.63 15.54H20.84V12.11C20.84 8.33 20.6067 5.76333 20.14 4.41C19.72 3.01 18.8333 2.31 17.48 2.31C16.1733 2.31 15.1933 3.05667 14.54 4.55C13.9333 5.99667 13.63 8.51667 13.63 12.11V15.54ZM67.6602 1.68V2.94L51.0702 33.74H51.9802C55.9002 33.74 58.9802 32.7133 61.2202 30.66C63.4602 28.6067 65.2102 25.27 66.4702 20.65H67.4502L66.3302 35H36.9302V33.95L53.8002 2.94H53.0302C48.3168 2.94 45.0268 3.71 43.1602 5.25C41.3402 6.79 39.7068 10.08 38.2602 15.12H37.3502L38.2602 1.68H67.6602ZM102.25 1.68V2.94L85.66 33.74H86.57C90.49 33.74 93.57 32.7133 95.81 30.66C98.05 28.6067 99.8 25.27 101.06 20.65H102.04L100.92 35H71.52V33.95L88.39 2.94H87.62C82.9067 2.94 79.6167 3.71 77.75 5.25C75.93 6.79 74.2967 10.08 72.85 15.12H71.94L72.85 1.68H102.25ZM121.5 18.55H123.53V13.16C123.53 8.72667 123.273 5.76333 122.76 4.27C122.293 2.73 121.36 1.96 119.96 1.96C119.12 1.96 118.35 2.19333 117.65 2.66C116.997 3.08 116.67 3.68667 116.67 4.48C116.67 5.22667 116.81 5.99667 117.09 6.79H118.84C119.213 7.77 119.4 8.96 119.4 10.36C119.4 11.7133 118.817 12.9033 117.65 13.93C116.483 14.91 115.013 15.4 113.24 15.4C109.227 15.4 107.22 13.4633 107.22 9.59C107.22 3.85 112.097 0.979998 121.85 0.979998C127.403 0.979998 131.23 1.93666 133.33 3.85C135.477 5.71666 136.55 9.17 136.55 14.21V28.42C136.55 30.8467 137.227 32.06 138.58 32.06C140.167 32.06 141.1 29.6567 141.38 24.85L142.43 24.92C142.243 29.0267 141.473 31.85 140.12 33.39C138.767 34.93 136.55 35.7 133.47 35.7C127.87 35.7 124.65 33.9733 123.81 30.52C123.203 32.2933 122.293 33.6 121.08 34.44C119.867 35.28 118.093 35.7 115.76 35.7C108.853 35.7 105.4 32.8767 105.4 27.23C105.4 23.9167 106.707 21.6533 109.32 20.44C111.98 19.18 116.04 18.55 121.5 18.55ZM118.7 27.16C118.7 29.5867 118.817 31.15 119.05 31.85C119.33 32.55 119.82 32.9 120.52 32.9C121.267 32.9 121.943 32.3167 122.55 31.15C123.203 29.9367 123.53 28.28 123.53 26.18V19.67H123.04C120.147 19.67 118.7 21.7933 118.7 26.04V27.16Z" fill="#232829"/>
</svg>
